<?xml version="1.0" encoding="UTF-8"?>
<svg version="1.1" xmlns="http://www.w3.org/2000/svg" width="625" height="625">
<path d="M0,0 L1,0 L1,625 L-624,625 L-618,618 L-441,441 L-443,437 L-454,425 L-464,412 L-474,397 L-483,381 L-492,362 L-500,340 L-506,315 L-509,295 L-510,282 L-510,255 L-507,228 L-502,205 L-493,178 L-484,158 L-474,140 L-462,123 L-454,113 L-445,103 L-436,93 L-428,86 L-415,75 L-399,64 L-384,55 L-359,43 L-329,33 L-305,28 L-288,26 L-245,26 L-218,30 L-194,36 L-172,44 L-149,55 L-128,68 L-114,79 L-101,90 L-95,95 Z " fill="#6A8372" transform="translate(624,0)"/>
<path d="M0,0 L29,0 L53,3 L75,8 L96,15 L121,27 L137,37 L150,47 L164,59 L175,70 L184,81 L195,96 L204,111 L212,127 L220,147 L226,171 L230,197 L230,227 L226,257 L221,276 L214,296 L205,315 L194,333 L185,345 L176,356 L156,376 L139,389 L125,398 L104,409 L83,417 L73,420 L57,424 L33,427 L-3,427 L-25,424 L-48,418 L-67,411 L-84,403 L-104,391 L-118,380 L-132,368 L-142,358 L-151,347 L-162,332 L-171,317 L-179,301 L-186,283 L-191,268 L-195,247 L-197,230 L-197,195 L-194,172 L-187,146 L-179,126 L-167,103 L-159,91 L-148,77 L-137,65 L-124,52 L-110,41 L-95,31 L-77,21 L-56,12 L-32,5 L-17,2 Z " fill="#FFF" transform="translate(341,55)"/>
<path d="M0,0 L14,0 L30,6 L41,13 L49,22 L55,33 L58,42 L58,85 L63,87 L68,93 L71,99 L73,111 L77,117 L83,122 L93,127 L97,132 L100,138 L100,147 L95,159 L94,161 L94,174 L100,186 L100,195 L97,203 L92,208 L85,212 L77,218 L73,225 L71,236 L67,244 L59,250 L56,251 L33,251 L25,256 L16,264 L10,266 L1,266 L-8,261 L-16,253 L-23,250 L-33,250 L-36,251 L-46,251 L-54,246 L-59,240 L-61,234 L-63,224 L-68,216 L-74,212 L-83,207 L-88,200 L-89,196 L-89,185 L-84,174 L-84,160 L-88,153 L-89,149 L-89,139 L-86,132 L-82,127 L-69,119 L-64,109 L-62,98 L-56,90 L-50,86 L-48,86 L-48,46 L-45,34 L-39,23 L-30,13 L-20,6 L-11,2 Z " fill="#6A8372" transform="translate(352,97)"/>
<path d="M0,0 L22,0 L37,4 L48,10 L59,19 L67,29 L74,43 L77,57 L77,71 L74,84 L69,96 L62,106 L52,116 L41,123 L27,128 L19,129 L3,129 L-9,126 L-25,118 L-37,107 L-44,97 L-49,86 L-52,74 L-52,52 L-47,37 L-41,27 L-32,17 L-24,10 L-10,3 Z " fill="#FFF" transform="translate(345,200)"/>
<path d="M0,0 L13,3 L15,5 L14,7 L20,15 L29,22 L43,29 L47,30 L45,34 L41,42 L35,40 L31,38 L31,41 L13,41 L13,49 L35,49 L35,58 L12,58 L12,68 L42,68 L42,78 L-29,78 L-29,68 L0,68 L0,58 L-21,58 L-21,49 L0,49 L0,41 L-18,41 L-19,38 L-25,42 L-29,40 L-34,34 L-26,29 L-15,21 L-7,13 Z " fill="#FFF" transform="translate(307,518)"/>
<path d="M0,0 L10,0 L22,5 L29,11 L35,21 L36,26 L36,63 L30,62 L23,58 L15,51 L11,49 L-2,49 L-10,54 L-16,61 L-24,65 L-28,65 L-28,28 L-25,18 L-19,10 L-12,4 L-5,1 Z " fill="#FFF" transform="translate(353,118)"/>
<path d="M0,0 L47,0 L47,10 L30,10 L30,25 L44,25 L44,35 L30,35 L30,60 L48,60 L48,69 L-4,69 L-4,59 L1,59 L0,50 L-14,68 L-17,72 L-20,71 L-24,64 L-23,59 L-21,56 L-20,30 L-31,30 L-31,20 L-9,20 L-8,43 L-5,39 L-2,40 L0,44 L1,20 L13,20 L12,60 L19,60 L19,10 L0,10 Z " fill="#FFF" transform="translate(504,524)"/>
<path d="M0,0 L6,1 L13,3 L13,7 L9,14 L47,14 L47,23 L31,23 L30,27 L25,37 L25,39 L44,48 L45,50 L37,60 L26,53 L16,48 L11,50 L-3,56 L-13,59 L-21,59 L-27,49 L-10,46 L0,43 L0,41 L-11,38 L-17,36 L-15,31 L-10,23 L-30,23 L-30,14 L-5,13 Z " fill="#FFF" transform="translate(206,539)"/>
<path d="M0,0 L2,0 L9,14 L7,18 L-1,25 L-9,32 L12,27 L16,27 L23,40 L23,42 L-9,59 L-14,61 L-18,54 L-18,51 L7,38 L-9,42 L-17,44 L-23,44 L-27,36 L-10,20 L-6,16 L-30,29 L-33,25 L-35,19 L-3,2 Z " fill="#6A8372" transform="translate(211,320)"/>
<path d="M0,0 L13,0 L14,32 L18,46 L24,57 L31,65 L35,68 L33,72 L28,79 L21,73 L15,66 L10,55 L8,51 L4,61 L-3,70 L-10,77 L-15,79 L-23,73 L-19,69 L-11,62 L-5,52 L-1,39 Z " fill="#FFF" transform="translate(418,519)"/>
<path d="M0,0 L8,1 L10,4 L9,11 L-26,46 L-33,52 L-39,52 L-47,45 L-62,31 L-69,24 L-69,16 L-66,14 L-59,14 L-42,30 L-38,34 L-34,33 L-15,14 L-7,7 Z " fill="#6A8372" transform="translate(386,240)"/>
<path d="M0,0 L8,0 L26,10 L27,13 L22,21 L6,13 L1,14 L2,19 L17,28 L16,32 L13,38 L8,37 L-4,30 L-9,30 L-7,37 L7,45 L6,50 L3,55 L-2,54 L-24,41 L-19,32 L-16,33 L-16,25 L-12,19 L-10,17 L-6,17 L-6,7 L-3,2 Z " fill="#6A8372" transform="translate(511,331)"/>
<path d="M0,0 L14,0 L24,5 L27,9 L27,16 L15,15 L13,9 L7,8 L6,12 L20,20 L25,26 L25,33 L22,39 L18,42 L15,43 L5,43 L-5,40 L-10,35 L-12,32 L-12,24 L-2,25 L0,26 L2,32 L5,34 L10,34 L11,33 L11,28 L0,22 L-5,18 L-7,14 L-7,7 L-2,1 Z " fill="#6A8372" transform="translate(310,416)"/>
<path d="M0,0 L8,0 L19,6 L24,12 L24,21 L21,22 L13,18 L11,11 L4,9 L5,15 L9,17 L16,25 L18,30 L17,37 L12,43 L9,44 L-2,44 L-12,38 L-18,31 L-18,21 L-17,19 L-12,21 L-6,24 L-4,33 L3,34 L4,29 L-5,20 L-8,15 L-8,6 L-3,1 Z " fill="#6A8372" transform="translate(269,397)"/>
<path d="M0,0 L14,0 L14,10 L43,10 L43,28 L31,28 L31,19 L-16,20 L-17,28 L-28,28 L-28,10 L2,10 Z " fill="#FCFDFB" transform="translate(207,518)"/>
<path d="M0,0 L8,0 L15,4 L19,10 L19,20 L15,27 L9,32 L6,33 L-5,33 L-13,26 L-15,22 L-15,14 L-9,5 L-3,1 Z " fill="#6A8372" transform="translate(474,385)"/>
<path d="M0,0 L22,0 L23,23 L26,19 L29,20 L31,24 L32,0 L44,0 L44,1 L33,1 L33,40 L27,40 L27,39 L32,39 L31,30 L17,48 L14,52 L11,51 L7,44 L8,39 L10,36 L11,10 L0,10 Z " fill="#FFF" transform="translate(473,544)"/>
<path d="M0,0 L23,0 L24,25 L32,16 L35,20 L37,26 L22,41 L15,49 L11,49 L6,42 L7,38 L11,31 L12,10 L0,10 Z " fill="#FFF" transform="translate(374,544)"/>
<path d="M0,0 L7,6 L9,7 L7,13 L0,26 L16,17 L21,19 L25,23 L25,25 L-6,40 L-9,41 L-17,41 L-24,36 L-27,32 L-25,28 L-22,25 L-17,30 L-12,29 Z " fill="#6A8372" transform="translate(230,373)"/>
<path d="M0,0 L13,0 L14,10 L14,31 L20,30 L35,30 L35,40 L26,41 L3,41 L2,39 L0,8 Z " fill="#6A8372" transform="translate(349,421)"/>
<path d="M0,0 L9,0 L14,3 L12,7 L8,10 L-1,10 L-3,12 L-3,18 L0,23 L7,23 L9,21 L10,16 L18,13 L21,13 L21,20 L17,26 L12,30 L5,33 L-5,33 L-10,30 L-15,21 L-15,13 L-11,7 L-2,1 Z " fill="#6A8372" transform="translate(435,412)"/>
<path d="M0,0 L4,1 L9,14 L9,17 L0,20 L-3,20 L-8,8 L-9,4 Z " fill="#FFF" transform="translate(490,520)"/>
<path d="M0,0 L6,5 L11,11 L15,15 L-14,15 L-9,9 L-4,4 Z " fill="#6A8372" transform="translate(313,534)"/>
<path d="M0,0 L3,1 L9,13 L9,16 L1,19 L-2,19 L-8,7 L-7,3 Z " fill="#FFF" transform="translate(394,520)"/>
<path d="M0,0 L5,1 L11,8 L10,13 L8,15 L2,15 L-4,8 L-3,2 Z " fill="#FFF" transform="translate(473,394)"/>
<path d="M0,0 L3,0 L5,11 L0,13 L-7,14 L-9,6 L-9,2 Z " fill="#6A8372" transform="translate(407,444)"/>
<path d="M0,0 L14,0 L11,9 L9,11 L0,9 L-3,7 L-1,2 Z " fill="#6A8372" transform="translate(209,562)"/>
<path d="M0,0 L1,0 L1,10 L-6,11 L-9,13 L-7,9 Z " fill="#6A8372" transform="translate(504,573)"/>
</svg>
